<?xml version="1.0" encoding="utf-8"?>
<!-- Generator: Adobe Illustrator 20.1.0, SVG Export Plug-In . SVG Version: 6.00 Build 0)  -->
<svg version="1.1" id="圖層_1" xmlns="http://www.w3.org/2000/svg" xmlns:xlink="http://www.w3.org/1999/xlink" x="0px" y="0px"
	 viewBox="0 0 500 500" style="enable-background:new 0 0 500 500;" xml:space="preserve">
<style type="text/css">
	.st0{opacity:0.3;fill:url(#SVGID_1_);}
	.st1{clip-path:url(#SVGID_3_);}
	.st2{fill:#FFFFFF;}
	.st3{opacity:0.5;fill:url(#SVGID_4_);}
	.st4{clip-path:url(#SVGID_5_);}
	.st5{clip-path:url(#SVGID_6_);fill:#BF2328;}
	.st6{clip-path:url(#SVGID_6_);fill:#FFFFFF;}
	.st7{clip-path:url(#SVGID_6_);fill:#29345E;}
	.st8{opacity:0.5;fill:url(#SVGID_7_);}
</style>
<linearGradient id="SVGID_1_" gradientUnits="userSpaceOnUse" x1="246.2431" y1="294.4926" x2="246.7618" y2="92.1815">
	<stop  offset="0" style="stop-color:#FFFFFF;stop-opacity:0"/>
	<stop  offset="1" style="stop-color:#FFFFFF"/>
</linearGradient>
<path class="st0" d="M435.8,163.7c0,73.2-84.7,132.5-189.2,132.5S57.4,236.8,57.4,163.7c0-73.2,84.7-132.5,189.2-132.5
	S435.8,90.5,435.8,163.7z"/>
<g>
	<g>
		<defs>
			<path id="SVGID_2_" d="M485.4,250c0,133.6-108.3,241.8-241.8,241.8C110,491.8,1.7,383.6,1.7,250C1.7,116.4,110,8.2,243.6,8.2
				C377.1,8.2,485.4,116.4,485.4,250z"/>
		</defs>
		<clipPath id="SVGID_3_">
			<use xlink:href="#SVGID_2_"  style="overflow:visible;"/>
		</clipPath>
		<g class="st1">
			<g>
				<polygon class="st2" points="162.7,7.9 324.3,7.9 324.3,174.3 728.3,169.4 728.3,331 324.3,335.9 324.3,497.4 162.7,497.4 
					162.7,335.9 -241.3,331 -241.3,169.4 162.7,174.3 				"/>
				<polygon class="st2" points="-241.3,7.9 -132.9,12.7 728.3,443.2 728.3,492.6 619.9,497.4 -241.3,62.1 				"/>
				<g>
					<polygon class="st2" points="728.3,7.9 619.9,12.7 -241.3,443.2 -241.3,492.6 -132.9,497.4 728.3,62.1 					"/>
				</g>
			</g>
		</g>
	</g>
	<linearGradient id="SVGID_4_" gradientUnits="userSpaceOnUse" x1="243.216" y1="288.0534" x2="243.7347" y2="85.7355">
		<stop  offset="0" style="stop-color:#FFFFFF;stop-opacity:0"/>
		<stop  offset="1" style="stop-color:#FFFFFF"/>
	</linearGradient>
	<ellipse class="st3" cx="243.6" cy="157.2" rx="189.2" ry="132.5"/>
	<g>
	</g>
	<g>
		<defs>
			<path id="SVGID_14_" d="M500,250c0,138.1-111.9,250-250,250C111.9,500,0,388.1,0,250C0,111.9,111.9,0,250,0
				C388.1,0,500,111.9,500,250z"/>
		</defs>
		<clipPath id="SVGID_5_">
			<use xlink:href="#SVGID_14_"  style="overflow:visible;"/>
		</clipPath>
		<g class="st4">
			<g>
				<defs>
					<rect id="SVGID_16_" x="-132.7" width="865.3" height="504.8"/>
				</defs>
				<clipPath id="SVGID_6_">
					<use xlink:href="#SVGID_16_"  style="overflow:visible;"/>
				</clipPath>
				<rect x="-132.7" y="465.9" class="st5" width="865.3" height="38.8"/>
				<rect x="-132.7" y="427.1" class="st6" width="865.3" height="38.8"/>
				<rect x="-132.7" y="388.3" class="st5" width="865.3" height="38.8"/>
				<rect x="-132.7" y="349.5" class="st6" width="865.3" height="38.8"/>
				<rect x="-132.7" y="310.6" class="st5" width="865.3" height="38.8"/>
				<rect x="-132.7" y="271.8" class="st6" width="865.3" height="38.8"/>
				<rect x="-132.7" y="233" class="st5" width="865.3" height="38.8"/>
				<rect x="-132.7" y="194.1" class="st6" width="865.3" height="38.8"/>
				<rect x="-132.7" y="155.3" class="st5" width="865.3" height="38.8"/>
				<rect x="-132.7" y="116.5" class="st6" width="865.3" height="38.8"/>
				<rect x="-132.7" y="77.6" class="st5" width="865.3" height="38.8"/>
				<rect x="-132.7" y="38.8" class="st6" width="865.3" height="38.8"/>
				<rect x="-132.7" class="st5" width="865.3" height="38.8"/>
				<rect x="-132.7" class="st7" width="395.1" height="271.8"/>
				<polygon class="st6" points="-97.1,29.9 -93.7,40.2 -82.9,40.2 -91.7,46.6 -88.3,56.8 -97.1,50.5 -105.8,56.8 -102.5,46.6 
					-111.2,40.2 -100.4,40.2 				"/>
				<polygon class="st6" points="-97.1,75.3 -93.7,85.6 -82.9,85.6 -91.7,91.9 -88.3,102.2 -97.1,95.9 -105.8,102.2 -102.5,91.9 
					-111.2,85.6 -100.4,85.6 				"/>
				<polygon class="st6" points="-97.1,120.7 -93.7,131 -82.9,131 -91.7,137.3 -88.3,147.6 -97.1,141.2 -105.8,147.6 -102.5,137.3 
					-111.2,131 -100.4,131 				"/>
				<polygon class="st6" points="-97.1,166.1 -93.7,176.3 -82.9,176.3 -91.7,182.7 -88.3,192.9 -97.1,186.6 -105.8,192.9 
					-102.5,182.7 -111.2,176.3 -100.4,176.3 				"/>
				<polygon class="st6" points="-97.1,211.4 -93.7,221.7 -82.9,221.7 -91.7,228 -88.3,238.3 -97.1,232 -105.8,238.3 -102.5,228 
					-111.2,221.7 -100.4,221.7 				"/>
				<polygon class="st6" points="-65.5,53.9 -62.1,64.1 -51.3,64.1 -60.1,70.5 -56.7,80.7 -65.5,74.4 -74.2,80.7 -70.9,70.5 
					-79.6,64.1 -68.8,64.1 				"/>
				<polygon class="st6" points="-65.5,99.2 -62.1,109.5 -51.3,109.5 -60.1,115.8 -56.7,126.1 -65.5,119.8 -74.2,126.1 -70.9,115.8 
					-79.6,109.5 -68.8,109.5 				"/>
				<polygon class="st6" points="-65.5,144.6 -62.1,154.8 -51.3,154.8 -60.1,161.2 -56.7,171.5 -65.5,165.1 -74.2,171.5 
					-70.9,161.2 -79.6,154.8 -68.8,154.8 				"/>
				<polygon class="st6" points="-65.5,190 -62.1,200.2 -51.3,200.2 -60.1,206.6 -56.7,216.8 -65.5,210.5 -74.2,216.8 -70.9,206.6 
					-79.6,200.2 -68.8,200.2 				"/>
				<polygon class="st6" points="-33.5,29.9 -30.1,40.2 -19.3,40.2 -28.1,46.6 -24.7,56.8 -33.5,50.5 -42.2,56.8 -38.9,46.6 
					-47.6,40.2 -36.8,40.2 				"/>
				<polygon class="st6" points="-33.5,75.3 -30.1,85.6 -19.3,85.6 -28.1,91.9 -24.7,102.2 -33.5,95.9 -42.2,102.2 -38.9,91.9 
					-47.6,85.6 -36.8,85.6 				"/>
				<polygon class="st6" points="-33.5,120.7 -30.1,131 -19.3,131 -28.1,137.3 -24.7,147.6 -33.5,141.2 -42.2,147.6 -38.9,137.3 
					-47.6,131 -36.8,131 				"/>
				<polygon class="st6" points="-33.5,166.1 -30.1,176.3 -19.3,176.3 -28.1,182.7 -24.7,192.9 -33.5,186.6 -42.2,192.9 
					-38.9,182.7 -47.6,176.3 -36.8,176.3 				"/>
				<polygon class="st6" points="-33.5,211.4 -30.1,221.7 -19.3,221.7 -28.1,228 -24.7,238.3 -33.5,232 -42.2,238.3 -38.9,228 
					-47.6,221.7 -36.8,221.7 				"/>
				<polygon class="st6" points="-1.9,53.9 1.5,64.1 12.3,64.1 3.6,70.5 6.9,80.7 -1.9,74.4 -10.6,80.7 -7.3,70.5 -16,64.1 
					-5.2,64.1 				"/>
				<polygon class="st6" points="-1.9,99.2 1.5,109.5 12.3,109.5 3.6,115.8 6.9,126.1 -1.9,119.8 -10.6,126.1 -7.3,115.8 -16,109.5 
					-5.2,109.5 				"/>
				<polygon class="st6" points="-1.9,144.6 1.5,154.8 12.3,154.8 3.6,161.2 6.9,171.5 -1.9,165.1 -10.6,171.5 -7.3,161.2 
					-16,154.8 -5.2,154.8 				"/>
				<polygon class="st6" points="-1.9,190 1.5,200.2 12.3,200.2 3.6,206.6 6.9,216.8 -1.9,210.5 -10.6,216.8 -7.3,206.6 -16,200.2 
					-5.2,200.2 				"/>
				<polygon class="st6" points="30.1,29.9 33.5,40.2 44.3,40.2 35.5,46.6 38.9,56.8 30.1,50.5 21.4,56.8 24.7,46.6 16,40.2 
					26.8,40.2 				"/>
				<polygon class="st6" points="30.1,75.3 33.5,85.6 44.3,85.6 35.5,91.9 38.9,102.2 30.1,95.9 21.4,102.2 24.7,91.9 16,85.6 
					26.8,85.6 				"/>
				<polygon class="st6" points="30.1,120.7 33.5,131 44.3,131 35.5,137.3 38.9,147.6 30.1,141.2 21.4,147.6 24.7,137.3 16,131 
					26.8,131 				"/>
				<polygon class="st6" points="30.1,166.1 33.5,176.3 44.3,176.3 35.5,182.7 38.9,192.9 30.1,186.6 21.4,192.9 24.7,182.7 
					16,176.3 26.8,176.3 				"/>
				<polygon class="st6" points="30.1,211.4 33.5,221.7 44.3,221.7 35.5,228 38.9,238.3 30.1,232 21.4,238.3 24.7,228 16,221.7 
					26.8,221.7 				"/>
				<polygon class="st6" points="61.7,53.9 65.1,64.1 75.9,64.1 67.1,70.5 70.5,80.7 61.7,74.4 53,80.7 56.3,70.5 47.6,64.1 
					58.4,64.1 				"/>
				<polygon class="st6" points="61.7,99.2 65.1,109.5 75.9,109.5 67.1,115.8 70.5,126.1 61.7,119.8 53,126.1 56.3,115.8 
					47.6,109.5 58.4,109.5 				"/>
				<polygon class="st6" points="61.7,144.6 65.1,154.8 75.9,154.8 67.1,161.2 70.5,171.5 61.7,165.1 53,171.5 56.3,161.2 
					47.6,154.8 58.4,154.8 				"/>
				<polygon class="st6" points="61.7,190 65.1,200.2 75.9,200.2 67.1,206.6 70.5,216.8 61.7,210.5 53,216.8 56.3,206.6 47.6,200.2 
					58.4,200.2 				"/>
				<polygon class="st6" points="93.7,29.9 97.1,40.2 107.9,40.2 99.1,46.6 102.5,56.8 93.7,50.5 85,56.8 88.4,46.6 79.6,40.2 
					90.4,40.2 				"/>
				<polygon class="st6" points="93.7,75.3 97.1,85.6 107.9,85.6 99.1,91.9 102.5,102.2 93.7,95.9 85,102.2 88.4,91.9 79.6,85.6 
					90.4,85.6 				"/>
				<polygon class="st6" points="93.7,120.7 97.1,131 107.9,131 99.1,137.3 102.5,147.6 93.7,141.2 85,147.6 88.4,137.3 79.6,131 
					90.4,131 				"/>
				<polygon class="st6" points="93.7,166.1 97.1,176.3 107.9,176.3 99.1,182.7 102.5,192.9 93.7,186.6 85,192.9 88.4,182.7 
					79.6,176.3 90.4,176.3 				"/>
				<polygon class="st6" points="93.7,211.4 97.1,221.7 107.9,221.7 99.1,228 102.5,238.3 93.7,232 85,238.3 88.4,228 79.6,221.7 
					90.4,221.7 				"/>
				<polygon class="st6" points="125.3,53.9 128.7,64.1 139.5,64.1 130.7,70.5 134.1,80.7 125.3,74.4 116.6,80.7 119.9,70.5 
					111.2,64.1 122,64.1 				"/>
				<polygon class="st6" points="125.3,99.2 128.7,109.5 139.5,109.5 130.7,115.8 134.1,126.1 125.3,119.8 116.6,126.1 119.9,115.8 
					111.2,109.5 122,109.5 				"/>
				<polygon class="st6" points="125.3,144.6 128.7,154.8 139.5,154.8 130.7,161.2 134.1,171.5 125.3,165.1 116.6,171.5 
					119.9,161.2 111.2,154.8 122,154.8 				"/>
				<polygon class="st6" points="125.3,190 128.7,200.2 139.5,200.2 130.7,206.6 134.1,216.8 125.3,210.5 116.6,216.8 119.9,206.6 
					111.2,200.2 122,200.2 				"/>
				<polygon class="st6" points="157.3,29.9 160.7,40.2 171.5,40.2 162.8,46.6 166.1,56.8 157.3,50.5 148.6,56.8 151.9,46.6 
					143.2,40.2 154,40.2 				"/>
				<polygon class="st6" points="157.3,75.3 160.7,85.6 171.5,85.6 162.8,91.9 166.1,102.2 157.3,95.9 148.6,102.2 151.9,91.9 
					143.2,85.6 154,85.6 				"/>
				<polygon class="st6" points="157.3,120.7 160.7,131 171.5,131 162.8,137.3 166.1,147.6 157.3,141.2 148.6,147.6 151.9,137.3 
					143.2,131 154,131 				"/>
				<polygon class="st6" points="157.3,166.1 160.7,176.3 171.5,176.3 162.8,182.7 166.1,192.9 157.3,186.6 148.6,192.9 
					151.9,182.7 143.2,176.3 154,176.3 				"/>
				<polygon class="st6" points="157.3,211.4 160.7,221.7 171.5,221.7 162.8,228 166.1,238.3 157.3,232 148.6,238.3 151.9,228 
					143.2,221.7 154,221.7 				"/>
				<polygon class="st6" points="188.9,53.9 192.3,64.1 203.1,64.1 194.3,70.5 197.7,80.7 188.9,74.4 180.2,80.7 183.5,70.5 
					174.8,64.1 185.6,64.1 				"/>
				<polygon class="st6" points="188.9,99.2 192.3,109.5 203.1,109.5 194.3,115.8 197.7,126.1 188.9,119.8 180.2,126.1 183.5,115.8 
					174.8,109.5 185.6,109.5 				"/>
				<polygon class="st6" points="188.9,144.6 192.3,154.8 203.1,154.8 194.3,161.2 197.7,171.5 188.9,165.1 180.2,171.5 
					183.5,161.2 174.8,154.8 185.6,154.8 				"/>
				<polygon class="st6" points="188.9,190 192.3,200.2 203.1,200.2 194.3,206.6 197.7,216.8 188.9,210.5 180.2,216.8 183.5,206.6 
					174.8,200.2 185.6,200.2 				"/>
				<polygon class="st6" points="220.9,29.9 224.3,40.2 235.1,40.2 226.3,46.6 229.7,56.8 220.9,50.5 212.2,56.8 215.5,46.6 
					206.8,40.2 217.6,40.2 				"/>
				<polygon class="st6" points="220.9,75.3 224.3,85.6 235.1,85.6 226.3,91.9 229.7,102.2 220.9,95.9 212.2,102.2 215.5,91.9 
					206.8,85.6 217.6,85.6 				"/>
				<polygon class="st6" points="220.9,120.7 224.3,131 235.1,131 226.3,137.3 229.7,147.6 220.9,141.2 212.2,147.6 215.5,137.3 
					206.8,131 217.6,131 				"/>
				<polygon class="st6" points="220.9,166.1 224.3,176.3 235.1,176.3 226.3,182.7 229.7,192.9 220.9,186.6 212.2,192.9 
					215.5,182.7 206.8,176.3 217.6,176.3 				"/>
				<polygon class="st6" points="220.9,211.4 224.3,221.7 235.1,221.7 226.3,228 229.7,238.3 220.9,232 212.2,238.3 215.5,228 
					206.8,221.7 217.6,221.7 				"/>
			</g>
		</g>
	</g>
	<linearGradient id="SVGID_7_" gradientUnits="userSpaceOnUse" x1="251.9552" y1="270.6155" x2="252.4739" y2="68.2954">
		<stop  offset="0" style="stop-color:#FFFFFF;stop-opacity:0"/>
		<stop  offset="1" style="stop-color:#FFFFFF"/>
	</linearGradient>
	<path class="st8" d="M441.5,139.8c0,73.1-84.7,132.5-189.2,132.5c-104.5,0-189.2-59.3-189.2-132.5c0-73.2,84.7-132.5,189.2-132.5
		C356.8,7.3,441.5,66.6,441.5,139.8z"/>
</g>
</svg>
