<?xml version="1.0" encoding="utf-8"?>
<!-- Generator: Adobe Illustrator 23.0.6, SVG Export Plug-In . SVG Version: 6.00 Build 0)  -->
<svg version="1.1" id="圖層_1" xmlns="http://www.w3.org/2000/svg" xmlns:xlink="http://www.w3.org/1999/xlink" x="0px" y="0px"
	 viewBox="0 0 500 500" style="enable-background:new 0 0 500 500;" xml:space="preserve">
<style type="text/css">
	.st0{fill:#EEEEEE;}
	.st1{clip-path:url(#SVGID_2_);}
	.st2{fill:#FFFFFF;}
	.st3{fill:#A32324;}
	.st4{opacity:0.3;fill:url(#SVGID_3_);enable-background:new    ;}
</style>
<title>工作區域 1</title>
<path class="st0" d="M500,250c0,138-111.9,250-250,250S0,388.1,0,250S111.9,0,250,0S500,111.9,500,250z"/>
<g>
	<g>
		<defs>
			<circle id="SVGID_1_" cx="250" cy="250" r="230"/>
		</defs>
		<clipPath id="SVGID_2_">
			<use xlink:href="#SVGID_1_"  style="overflow:visible;"/>
		</clipPath>
		<g class="st1">
			<rect x="-22" y="-44.5" class="st2" width="560.6" height="560.6"/>
		</g>
	</g>
</g>
<path class="st3" d="M247,103.4c81.5,0,147.5,66.1,147.5,147.5S328.4,398.4,247,398.4c-81.5,0-147.5-66.1-147.5-147.5
	C99.5,169.4,165.5,103.4,247,103.4L247,103.4"/>
<linearGradient id="SVGID_3_" gradientUnits="userSpaceOnUse" x1="246.2646" y1="560.4927" x2="246.7834" y2="358.1815" gradientTransform="matrix(1 0 0 1 0 -266)">
	<stop  offset="0" style="stop-color:#FFFFFF;stop-opacity:0"/>
	<stop  offset="1" style="stop-color:#FFFFFF"/>
</linearGradient>
<path class="st4" d="M435.8,163.7c0,73.2-84.7,132.5-189.2,132.5S57.4,236.8,57.4,163.7c0-73.2,84.7-132.5,189.2-132.5
	S435.8,90.5,435.8,163.7z"/>
</svg>
