<?xml version="1.0" encoding="utf-8"?>
<!-- Generator: Adobe Illustrator 20.1.0, SVG Export Plug-In . SVG Version: 6.00 Build 0)  -->
<svg version="1.1" id="Countryflags.com" xmlns="http://www.w3.org/2000/svg" xmlns:xlink="http://www.w3.org/1999/xlink" x="0px"
	 y="0px" viewBox="0 0 500 500" style="enable-background:new 0 0 500 500;" xml:space="preserve">
<style type="text/css">
	.st0{clip-path:url(#SVGID_2_);fill:#EC1E24;}
	.st1{clip-path:url(#SVGID_2_);fill:#2B2F83;}
	.st2{clip-path:url(#SVGID_2_);}
	.st3{fill:#FFFFFF;}
	.st4{opacity:0.3;fill:url(#SVGID_3_);}
</style>
<g>
	<defs>
		<circle id="SVGID_1_" cx="250" cy="250" r="250"/>
	</defs>
	<clipPath id="SVGID_2_">
		<use xlink:href="#SVGID_1_"  style="overflow:visible;"/>
	</clipPath>
	<rect id="_x31_5" x="0" class="st0" width="750" height="500"/>
	<rect id="_x31_4" x="0" class="st1" width="249.8" height="250"/>
	<g class="st2">
		<circle id="_x31_3" class="st3" cx="148.1" cy="145.6" r="41.1"/>
		<path id="_x31_2" class="st3" d="M157.7,99.4l-9.6-36l-9.7,36C143.5,98.3,151.3,98,157.7,99.4z"/>
		<path id="_x31_1" class="st3" d="M133.3,100.8L107,74.4l9.7,36C120.4,106.9,127,102.8,133.3,100.8z"/>
		<path id="_x31_0" class="st3" d="M112.9,114.2l-36-9.6l26.4,26.4C104.8,125.9,108.4,119.1,112.9,114.2z"/>
		<path id="_x39_" class="st3" d="M101.9,136l-36,9.6l36.1,9.7C100.7,150.2,100.4,142.5,101.9,136z"/>
		<path id="_x38_" class="st3" d="M103.2,160.4l-26.3,26.3l36.1-9.7C109.4,173.3,105.2,166.8,103.2,160.4z"/>
		<path id="_x37_" class="st3" d="M116.6,180.9l-9.6,36l26.4-26.4C128.4,189,121.5,185.4,116.6,180.9z"/>
		<path id="_x36_" class="st3" d="M138.5,191.9l9.6,36l9.7-36.1C152.7,193,145,193.3,138.5,191.9z"/>
		<path id="_x35__1_" class="st3" d="M162.9,190.5l26.3,26.3l-9.7-36.1C175.8,184.4,169.2,188.5,162.9,190.5z"/>
		<path id="_x34__1_" class="st3" d="M183.3,177.1l36,9.6l-26.4-26.4C191.4,165.4,187.8,172.2,183.3,177.1z"/>
		<path id="_x33_" class="st3" d="M194.4,155.3l36-9.6l-36.1-9.7C195.5,141.1,195.8,148.8,194.4,155.3z"/>
		<path id="_x32__1_" class="st3" d="M193,130.9l26.3-26.3l-36.1,9.7C186.9,118,191,124.5,193,130.9z"/>
		<path id="_x31__1_" class="st3" d="M179.6,110.4l9.6-36l-26.4,26.4C167.8,102.3,174.7,105.9,179.6,110.4z"/>
	</g>
</g>
<linearGradient id="SVGID_3_" gradientUnits="userSpaceOnUse" x1="246.2431" y1="294.4926" x2="246.7618" y2="92.1815">
	<stop  offset="0" style="stop-color:#FFFFFF;stop-opacity:0"/>
	<stop  offset="1" style="stop-color:#FFFFFF"/>
</linearGradient>
<path class="st4" d="M435.8,163.7c0,73.2-84.7,132.5-189.2,132.5S57.4,236.8,57.4,163.7c0-73.2,84.7-132.5,189.2-132.5
	S435.8,90.5,435.8,163.7z"/>
</svg>
