<svg id="圖層_1" data-name="圖層 1" xmlns="http://www.w3.org/2000/svg" xmlns:xlink="http://www.w3.org/1999/xlink" viewBox="0 0 300 300"><defs><style>.cls-1{fill:none;}.cls-2{fill:#ccc;}.cls-3{clip-path:url(#clip-path);}.cls-4{fill:#fff;fill-rule:evenodd;opacity:0.8;isolation:isolate;}</style><clipPath id="clip-path"><rect class="cls-1" width="300" height="300"/></clipPath></defs><title>img_upload</title><rect class="cls-2" width="300" height="300"/><g class="cls-3"><path class="cls-4" d="M311.77,302.59a58.38,58.38,0,0,0-8.67-15.21c-5.77-7.38-13.36-12.54-21.73-16.5-2.43-1.15-4.8-2.54-7.47-3.14-8.35-1.89-16.61-4.13-24.81-6.58a10.73,10.73,0,0,1-7.65-2.68c-6.1-2.47-12.47-4.26-18.15-7.71-2-.31-3.89-.8-5.26-2.43-1-.28-1.9-1-2.93-1.25a12.94,12.94,0,0,1-7.32-4.64c-1.13-.76-2.34-1.42-3.41-2.27a4.56,4.56,0,0,1-2.55-3.33c-.51-2.14-1.15-4.28-1.73-6.4-.78-2.14-.81-4.42-1.27-6.61-.26-1.24-.57-2.31-1.93-2.68-1.32-.66-2.57,0-3.81.24-2.53.54-3.91-.25-4.31-2.94-.28-1.91-.81-3.87-.91-5.77-.2-4.25-.84-8.76,3.25-11.89a170.22,170.22,0,0,0,11.13-30.13c.64-2.32,1.74-4.29,4.84-4.37a4.4,4.4,0,0,0,4-3.37c1.83-6.09,3.57-12.21,6.39-18,.87-4.19,2.94-8.07,3.12-12.42,0-.88.19-1.75.11-2.62a2.5,2.5,0,0,0-.5-.92,2.66,2.66,0,0,1-.46-.35c.09-1.86.23-3.72.16-5.57-.08-2.6-1.34-4.76-3.87-5.41-2.34-.62-2.78-1.91-2.64-4,.54-8.18,1-16.38,1.5-24.57a.94.94,0,0,0-.09-.77.42.42,0,0,0,0-.48c-.24-2.49-.45-5-.74-7.44-.66-5.93-1.3-11.92-4.41-17.17A59.83,59.83,0,0,0,184.84,40c-8.86-4.51-18.48-6.75-28.16-8.69-20.11-4-38,.44-53.64,13.8a1.53,1.53,0,0,1,.11.42h0A11.58,11.58,0,0,0,99,50a36.13,36.13,0,0,1-7.43,9c-5.23,4.88-8.08,10.54-7.23,17.73A2.08,2.08,0,0,0,83.15,78c-1.27,5.86.32,11.67.29,17.49,1.44,4.94,1.47,10,1.88,15.08.23,2.78-.54,4.65-3.22,5.6-3.41,1.2-4.78,4-5.22,7.23a25.64,25.64,0,0,0,.36,10.32c1.33,4.8,2.73,9.59,4.28,14.33a38.85,38.85,0,0,1,4.84,13c.58,3,1.85,4.7,4.44,5.65a5.6,5.6,0,0,1,3.8,4.45c.77,3.51,2.07,6.84,3.14,10.25,1.25,2.77,3.29,5.22,3.31,8.47a2.83,2.83,0,0,0,.25,1c5.92,9.45,9.09,19.35,5.2,30.47-2,2.17-4-.1-6-.13s-3.7-.22-4.19,2.26c-1.53,4.81-2.37,9.84-3.89,14.67A9,9,0,0,1,87.74,244a95.76,95.76,0,0,1-17,7c-4,2.8-8.71,3.65-13.13,5.28-8.6,3.18-17.61,5-26.46,7.36C20.25,266.45,9.75,270.05.69,277c-4.61,5.66-10.66,10.25-12.93,17.65,0,3.13.19,6.31-.06,9.43-.18,2.44.5,3,3,3Q151,307,311.24,307C312.8,305.71,312.4,304.25,311.77,302.59Z"/></g></svg>