<?xml version="1.0" encoding="utf-8"?>
<!-- Generator: Adobe Illustrator 23.0.6, SVG Export Plug-In . SVG Version: 6.00 Build 0)  -->
<svg version="1.1" id="圖層_1" xmlns="http://www.w3.org/2000/svg" xmlns:xlink="http://www.w3.org/1999/xlink" x="0px" y="0px"
	 viewBox="0 0 172 40" style="enable-background:new 0 0 172 40;" xml:space="preserve">
<style type="text/css">
	.st0{fill:#FFFFFF;}
</style>
<g>
	<polygon class="st0" points="24.9,10 60.7,10 63.1,0 15.5,0 10.9,20 2.9,20 0.6,30 8.6,30 6.3,40 18,40 20.3,30 56.1,30 58.4,20 
		22.6,20 	"/>
	<polygon class="st0" points="114.8,10 117.1,0 69.7,0 60.5,40 107.9,40 110.2,30 74.5,30 79.1,10 	"/>
	<polygon class="st0" points="169.1,10 171.4,0 124.2,0 118.4,25 155,25 153.9,30 117.2,30 114.9,40 162.2,40 165.7,25 167.9,15 
		131.4,15 132.5,10 	"/>
</g>
</svg>
